<svg width="314" height="63" viewBox="0 0 314 63" fill="none" xmlns="http://www.w3.org/2000/svg">
<path d="M143.251 31.038C143.035 34.4889 141.849 37.4623 139.692 39.958C136.951 43.1624 133.038 44.7647 127.955 44.7647C122.533 44.7647 118.327 42.8851 115.339 39.1261C112.782 35.9525 111.504 32.024 111.504 27.3406C111.504 22.5032 112.967 18.436 115.894 15.1392C118.944 11.7191 123.056 10.009 128.232 10.009C132.545 10.009 136.134 11.3493 138.999 14.0299C141.464 16.3408 142.804 19.1755 143.02 22.534H134.609C134.27 21.0242 133.747 19.8842 133.038 19.1139C131.836 17.789 130.188 17.1265 128.093 17.1265C125.506 17.1265 123.503 18.1587 122.086 20.2231C120.884 22.041 120.284 24.4289 120.284 27.3868C120.284 30.8069 121.054 33.4259 122.594 35.2438C123.95 36.846 125.752 37.6471 128.001 37.6471C130.312 37.6471 132.068 36.7998 133.269 35.1052C133.916 34.1808 134.363 32.8251 134.609 31.038H143.251Z" fill="#151515"/>
<path d="M162.433 10.009C167.577 10.009 171.675 11.8269 174.725 15.4627C177.343 18.6363 178.653 22.611 178.653 27.3868C178.653 32.9021 176.958 37.2774 173.569 40.5126C170.612 43.3473 166.9 44.7647 162.433 44.7647C157.195 44.7647 153.036 42.9468 149.956 39.311C147.306 36.1682 145.981 32.1935 145.981 27.3868C145.981 21.8715 147.614 17.5579 150.88 14.4459C154.022 11.488 157.873 10.009 162.433 10.009ZM162.386 17.1265C159.891 17.1265 157.95 18.1741 156.564 20.2693C155.362 22.0564 154.761 24.4135 154.761 27.3406C154.761 30.7607 155.532 33.3951 157.072 35.2438C158.428 36.846 160.214 37.6471 162.433 37.6471C164.774 37.6471 166.607 36.7382 167.932 34.9203C169.256 33.0716 169.919 30.4988 169.919 27.202C169.919 23.8435 169.149 21.2707 167.608 19.4836C166.283 17.9122 164.543 17.1265 162.386 17.1265Z" fill="#151515"/>
<path d="M210.243 10.8409L199.476 43.9327H189.541L179.051 10.8409H188.108L191.112 20.4542C192.806 25.8462 193.977 30.8377 194.624 35.4287C195.332 30.8069 196.518 25.8308 198.182 20.5004L201.186 10.8409H210.243Z" fill="#151515"/>
<path d="M221.749 10.8409V43.9327H213.108V10.8409H221.749Z" fill="#151515"/>
<path d="M226.769 10.8409H240.91C245.747 10.8409 249.521 12.0734 252.232 14.5383C255.59 17.5579 257.269 21.7637 257.269 27.1557C257.269 32.7327 255.697 37.0463 252.555 40.0967C249.936 42.654 246.039 43.9327 240.864 43.9327H226.769V10.8409ZM235.411 17.9584V36.8152H240.171C242.882 36.8152 244.884 36.122 246.178 34.7354C247.718 33.0408 248.489 30.6067 248.489 27.4331C248.489 23.8281 247.426 21.2091 245.3 19.5761C243.852 18.4976 241.942 17.9584 239.57 17.9584H235.411Z" fill="#151515"/>
<path d="M281.691 37.1388C282.338 37.1388 282.661 37.4006 282.661 37.9244V43.0084C282.661 43.2549 282.569 43.4706 282.384 43.6554C282.23 43.8403 281.968 43.9327 281.598 43.9327H262.606C261.959 43.9327 261.635 43.64 261.635 43.0546V37.9244C261.635 37.4006 261.943 37.1388 262.559 37.1388H266.996C267.335 37.1388 267.504 37.0001 267.504 36.7228V19.3912C267.504 18.929 267.273 18.7441 266.811 18.8366L262.698 19.9458C261.959 20.0999 261.589 19.7763 261.589 18.9752V15.4627C261.589 15.093 261.635 14.8311 261.728 14.677C261.851 14.5229 262.051 14.3843 262.328 14.261L270.369 10.2401C270.831 9.99361 271.201 9.83955 271.478 9.77793C271.786 9.68549 272.125 9.63927 272.495 9.63927H276.053C276.577 9.63927 276.839 9.93198 276.839 10.5174V36.6304C276.839 36.9693 276.993 37.1388 277.301 37.1388H281.691Z" fill="#151515"/>
<path d="M297.851 44.3025C296.218 44.3025 294.724 44.0868 293.369 43.6554C292.013 43.1933 290.827 42.6232 289.811 41.9454C288.794 41.2367 287.977 40.4972 287.361 39.7269C286.776 38.9258 286.376 38.1709 286.16 37.4623C286.129 37.2466 286.129 37.0309 286.16 36.8152C286.191 36.5687 286.36 36.3993 286.668 36.3068L292.491 34.5506C292.768 34.4581 292.984 34.4889 293.138 34.643C293.292 34.7971 293.4 34.9511 293.461 35.1052C294.016 35.9063 294.601 36.5841 295.217 37.1388C295.833 37.6625 296.711 37.9244 297.851 37.9244C299.145 37.9244 300.254 37.6009 301.178 36.9539C302.103 36.3068 302.811 35.3979 303.304 34.227C303.797 33.0562 304.044 31.7159 304.044 30.2061C304.044 29.6515 303.966 29.3126 303.812 29.1893C303.689 29.0661 303.397 29.0969 302.934 29.2818C301.979 29.7131 301.024 30.0829 300.069 30.391C299.114 30.6683 297.944 30.8069 296.557 30.8069C294.185 30.8069 292.09 30.3756 290.273 29.5128C288.455 28.6193 287.038 27.4176 286.021 25.9079C285.005 24.3673 284.496 22.5956 284.496 20.5928C284.496 18.4052 285.112 16.4641 286.345 14.7694C287.577 13.044 289.241 11.7037 291.335 10.7485C293.43 9.76252 295.772 9.26953 298.36 9.26953C301.44 9.26953 304.09 9.9628 306.308 11.3493C308.557 12.705 310.282 14.6462 311.483 17.1727C312.685 19.6685 313.286 22.611 313.286 26.0003C313.286 29.7901 312.639 33.0562 311.345 35.7984C310.051 38.5407 308.249 40.6513 305.938 42.1302C303.628 43.5784 300.932 44.3025 297.851 44.3025ZM298.591 24.7986C299.176 24.7986 299.777 24.737 300.393 24.6138C301.009 24.4597 301.579 24.2748 302.103 24.0592C302.657 23.8127 303.088 23.5816 303.397 23.3659C303.612 23.181 303.751 23.0116 303.812 22.8575C303.905 22.6726 303.951 22.3645 303.951 21.9332C303.951 20.978 303.828 20.0999 303.581 19.2988C303.366 18.4976 303.027 17.789 302.565 17.1727C302.103 16.5565 301.548 16.0943 300.901 15.7862C300.254 15.4473 299.515 15.2778 298.683 15.2778C297.759 15.2778 296.912 15.4935 296.141 15.9249C295.402 16.3254 294.817 16.9108 294.385 17.6811C293.954 18.4206 293.738 19.2679 293.738 20.2231C293.738 21.2091 293.954 22.041 294.385 22.7189C294.848 23.3967 295.448 23.9205 296.188 24.2903C296.927 24.6292 297.728 24.7986 298.591 24.7986Z" fill="#151515"/>
<path fill-rule="evenodd" clip-rule="evenodd" d="M95.675 0.728516C98.8712 0.728516 101.462 3.31955 101.462 6.51576V49.1059C101.462 52.3021 98.8712 54.8931 95.675 54.8931H9.68516L0.387207 62.3024V36.7075L0.387231 6.51577C0.387231 3.31956 2.97828 0.728516 6.17448 0.728516H95.675ZM39.9887 9.26914V42.2214H31.3774V28.5987H20.1873V42.2214H11.576V9.26914H20.1873V21.189H31.3774V9.26914H39.9887ZM94.1407 18.3356L85.4834 42.4515C84.2861 45.7652 82.9967 47.9436 81.6152 48.9867C80.2337 50.0299 77.9619 50.5515 74.7998 50.5515C73.1113 50.5515 71.1926 50.3674 69.0436 49.9992L70.2869 43.7862C70.9623 44.0316 71.8373 44.1544 72.9118 44.1544C74.6003 44.1544 75.6748 43.8015 76.1353 43.0958C76.6265 42.3902 76.8721 41.6078 76.8721 40.7487C76.8721 40.5646 76.826 40.3652 76.7339 40.1504L68.5831 18.3356H76.9181L80.2337 28.9208C80.6328 30.2402 81.0626 32.0964 81.5231 34.4896C82.1371 31.7589 82.6283 29.8106 82.9967 28.6447L86.1281 18.3356H94.1407ZM67.2379 36.1468C68.0232 34.7607 68.4551 33.3369 68.5337 31.8753L61.2938 33.3543C60.6255 35.3135 59.311 36.4933 57.3502 36.8939C55.7514 37.2205 54.3889 37.0117 53.2627 36.2676C52.1303 35.4933 51.3614 34.2677 50.956 32.5907L68.4223 29.0227L68.2744 28.2987C67.4856 24.4374 65.8674 21.5155 63.4198 19.5329C60.6329 17.2739 57.173 16.5666 53.0403 17.4108C49.6315 18.1071 46.9903 19.7151 45.1167 22.2348C42.9488 25.1602 42.2686 28.5988 43.0758 32.5506C43.8461 36.3214 45.7475 39.0912 48.78 40.8601C51.4916 42.443 54.7027 42.8555 58.4132 42.0976C62.5158 41.2595 65.4574 39.2759 67.2379 36.1468ZM50.3639 29.4214C51.0946 29.2721 51.5659 28.5587 51.4166 27.828C51.2672 27.0974 50.5539 26.6261 49.8232 26.7754C49.0925 26.9247 48.6212 27.6381 48.7705 28.3688C48.9199 29.0995 49.6332 29.5707 50.3639 29.4214ZM63.8907 25.2788C64.04 26.0095 63.5687 26.7229 62.8381 26.8722C62.1074 27.0215 61.394 26.5502 61.2447 25.8196C61.0953 25.0889 61.5666 24.3755 62.2973 24.2262C63.028 24.0768 63.7414 24.5481 63.8907 25.2788Z" fill="#151515"/>
</svg>
