<svg width="130" height="56" viewBox="0 0 130 56" fill="none" xmlns="http://www.w3.org/2000/svg">
<path d="M5.50568 36L0.426136 18.5455H5.08807L7.72159 29.983H7.86648L10.875 18.5455H14.6761L17.6847 30.0085H17.8295L20.4716 18.5455H25.125L20.054 36H15.9886L12.8438 25.4148H12.7074L9.5625 36H5.50568ZM29.1051 36.2216C28.2699 36.2216 27.5284 36.0824 26.8807 35.804C26.2386 35.5199 25.7301 35.0937 25.3551 34.5256C24.9858 33.9517 24.8011 33.233 24.8011 32.3693C24.8011 31.642 24.929 31.0284 25.1847 30.5284C25.4403 30.0284 25.7926 29.6222 26.2415 29.3097C26.6903 28.9972 27.2074 28.7614 27.7926 28.6023C28.3778 28.4375 29.0028 28.3267 29.6676 28.2699C30.4119 28.2017 31.0114 28.1307 31.4659 28.0568C31.9205 27.9773 32.25 27.8665 32.4545 27.7244C32.6648 27.5767 32.7699 27.3693 32.7699 27.1023V27.0597C32.7699 26.6222 32.6193 26.2841 32.3182 26.0455C32.017 25.8068 31.6108 25.6875 31.0994 25.6875C30.5483 25.6875 30.1051 25.8068 29.7699 26.0455C29.4347 26.2841 29.2216 26.6136 29.1307 27.0341L25.2869 26.8977C25.4006 26.1023 25.6932 25.392 26.1648 24.767C26.642 24.1364 27.2955 23.642 28.125 23.2841C28.9602 22.9205 29.9631 22.7386 31.1335 22.7386C31.9688 22.7386 32.7386 22.8381 33.4432 23.0369C34.1477 23.2301 34.7614 23.5142 35.2841 23.8892C35.8068 24.2585 36.2102 24.7131 36.4943 25.2528C36.7841 25.7926 36.929 26.4091 36.929 27.1023V36H33.0085V34.1761H32.9062C32.6733 34.6193 32.375 34.9943 32.0114 35.3011C31.6534 35.608 31.2301 35.8381 30.7415 35.9915C30.2585 36.1449 29.7131 36.2216 29.1051 36.2216ZM30.392 33.4943C30.8409 33.4943 31.2443 33.4034 31.6023 33.2216C31.9659 33.0398 32.2557 32.7898 32.4716 32.4716C32.6875 32.1477 32.7955 31.7727 32.7955 31.3466V30.1023C32.6761 30.1648 32.5313 30.2216 32.3608 30.2727C32.196 30.3239 32.0142 30.3722 31.8153 30.4176C31.6165 30.4631 31.4119 30.5028 31.2017 30.5369C30.9915 30.571 30.7898 30.6023 30.5966 30.6307C30.2045 30.6932 29.8693 30.7898 29.5909 30.9205C29.3182 31.0511 29.108 31.2216 28.9602 31.4318C28.8182 31.6364 28.7472 31.8807 28.7472 32.1648C28.7472 32.5966 28.9006 32.9261 29.2074 33.1534C29.5199 33.3807 29.9148 33.4943 30.392 33.4943ZM51.7074 22.9091L47.2159 36H42.4432L37.9602 22.9091H42.3494L44.7614 31.9261H44.8977L47.3182 22.9091H51.7074ZM59.0028 36.2472C57.6335 36.2472 56.4517 35.9773 55.4574 35.4375C54.4688 34.892 53.7074 34.1165 53.1733 33.1108C52.6449 32.0994 52.3807 30.8977 52.3807 29.5057C52.3807 28.1534 52.6477 26.9716 53.1818 25.9602C53.7159 24.9432 54.4688 24.1534 55.4403 23.5909C56.4119 23.0227 57.5568 22.7386 58.875 22.7386C59.8068 22.7386 60.6591 22.8835 61.4318 23.1733C62.2045 23.4631 62.8722 23.892 63.4347 24.4602C63.9972 25.0284 64.4347 25.7301 64.7472 26.5653C65.0597 27.3949 65.2159 28.3466 65.2159 29.4205V30.4602H53.8381V28.0398H61.3381C61.3324 27.5966 61.2273 27.2017 61.0227 26.8551C60.8182 26.5085 60.5369 26.2386 60.179 26.0455C59.8267 25.8466 59.4205 25.7472 58.9602 25.7472C58.4943 25.7472 58.0767 25.8523 57.7074 26.0625C57.3381 26.267 57.0455 26.5483 56.8295 26.9062C56.6136 27.2585 56.5 27.6591 56.4886 28.108V30.571C56.4886 31.1051 56.5938 31.5739 56.804 31.9773C57.0142 32.375 57.3125 32.6847 57.6989 32.9062C58.0852 33.1278 58.5455 33.2386 59.0795 33.2386C59.4489 33.2386 59.7841 33.1875 60.0852 33.0852C60.3864 32.983 60.6449 32.8324 60.8608 32.6335C61.0767 32.4347 61.2386 32.1903 61.3466 31.9006L65.1733 32.0114C65.0142 32.8693 64.6648 33.6165 64.125 34.2528C63.5909 34.8835 62.8892 35.375 62.0199 35.7273C61.1506 36.0739 60.1449 36.2472 59.0028 36.2472ZM78.7734 26.9062L74.9467 27.0085C74.907 26.7358 74.799 26.4943 74.6229 26.2841C74.4467 26.0682 74.2166 25.9006 73.9325 25.7812C73.6541 25.6562 73.3303 25.5938 72.9609 25.5938C72.478 25.5938 72.0661 25.6903 71.7251 25.8835C71.3899 26.0767 71.2251 26.3381 71.2308 26.6676C71.2251 26.9233 71.3274 27.1449 71.5376 27.3324C71.7536 27.5199 72.1371 27.6705 72.6882 27.7841L75.2109 28.2614C76.5178 28.5114 77.4893 28.9261 78.1257 29.5057C78.7678 30.0852 79.0916 30.8523 79.0973 31.8068C79.0916 32.7045 78.8246 33.4858 78.2962 34.1506C77.7734 34.8153 77.0575 35.3324 76.1484 35.7017C75.2393 36.0653 74.1996 36.2472 73.0291 36.2472C71.1598 36.2472 69.6854 35.8636 68.6058 35.0966C67.532 34.3239 66.9183 33.2898 66.7649 31.9943L70.8814 31.892C70.9723 32.3693 71.2081 32.733 71.5888 32.983C71.9695 33.233 72.4553 33.358 73.0462 33.358C73.5803 33.358 74.0149 33.2585 74.3501 33.0597C74.6854 32.8608 74.8558 32.5966 74.8615 32.267C74.8558 31.9716 74.7251 31.7358 74.4695 31.5597C74.2138 31.3778 73.8132 31.2358 73.2678 31.1335L70.9837 30.6989C69.6712 30.4602 68.6939 30.0199 68.0518 29.3778C67.4098 28.7301 67.0916 27.9062 67.0973 26.9062C67.0916 26.0312 67.3246 25.2841 67.7962 24.6648C68.2678 24.0398 68.9382 23.5625 69.8075 23.233C70.6768 22.9034 71.7024 22.7386 72.8842 22.7386C74.657 22.7386 76.0547 23.1108 77.0774 23.8551C78.1001 24.5937 78.6655 25.6108 78.7734 26.9062Z" fill="black"/>
<path d="M92.76 40.52C91.64 40.52 90.7867 40.24 90.2 39.68C89.64 39.12 89.36 38.4 89.36 37.52C89.36 36.6933 89.5867 35.9467 90.04 35.28C90.4933 34.5867 91.08 34.04 91.8 33.64C92.5467 33.2133 93.3067 33 94.08 33C94.4 33 94.72 33.04 95.04 33.12C95.36 33.1733 95.6667 33.28 95.96 33.44V16.4L111.72 12.4V32.04C111.72 33.48 111.413 34.72 110.8 35.76C110.213 36.7733 109.44 37.56 108.48 38.12C107.52 38.6533 106.507 38.92 105.44 38.92C104.32 38.92 103.467 38.64 102.88 38.08C102.293 37.52 102 36.8 102 35.92C102 35.0933 102.227 34.3467 102.68 33.68C103.16 32.9867 103.76 32.44 104.48 32.04C105.2 31.6133 105.96 31.4 106.76 31.4C107.08 31.4 107.4 31.44 107.72 31.52C108.04 31.5733 108.333 31.68 108.6 31.84V15.6L109.8 16.68L97.68 20.04L99.04 18.16V33.64C99.04 35.08 98.7333 36.32 98.12 37.36C97.5333 38.3733 96.76 39.1467 95.8 39.68C94.84 40.24 93.8267 40.52 92.76 40.52Z" fill="black"/>
</svg>
